<?xml version="1.0" standalone="no"?>
<!DOCTYPE svg PUBLIC "-//W3C//DTD SVG 20010904//EN"
 "http://www.w3.org/TR/2001/REC-SVG-20010904/DTD/svg10.dtd">
<svg version="1.0" xmlns="http://www.w3.org/2000/svg"
 width="700.000000pt" height="700.000000pt" viewBox="0 0 700.000000 700.000000"
 preserveAspectRatio="xMidYMid meet">
<metadata>
Created by potrace 1.14, written by Peter Selinger 2001-2017
</metadata>
<g transform="translate(0.000000,700.000000) scale(0.100000,-0.100000)"
fill="#000000" stroke="none">
<path d="M3377 6914 c-1 -1 -47 -4 -102 -8 -55 -3 -109 -8 -121 -10 -12 -2
-45 -7 -75 -11 -30 -4 -72 -10 -94 -15 -22 -5 -53 -11 -70 -14 -58 -11 -76
-15 -167 -40 -435 -119 -828 -328 -1192 -635 -521 -439 -884 -1113 -971 -1801
-3 -25 -9 -76 -14 -115 -11 -88 -11 -502 0 -581 5 -32 11 -84 13 -115 3 -31
17 -116 31 -190 79 -421 238 -802 482 -1154 441 -635 1215 -1094 2008 -1190
28 -4 61 -9 75 -11 14 -3 122 -8 240 -11 118 -3 217 -7 219 -9 2 -2 -7 -8 -20
-13 -13 -5 -91 -41 -174 -80 -82 -40 -176 -84 -208 -99 l-59 -28 444 -318
c243 -175 460 -331 480 -347 20 -16 42 -29 48 -29 9 0 70 31 128 65 9 6 69 39
132 74 63 36 131 73 150 84 47 27 414 234 470 265 25 14 61 34 80 45 19 11 85
47 145 82 61 34 133 74 160 90 28 15 100 55 160 90 61 34 130 73 155 87 25 14
135 76 245 138 110 62 225 127 255 143 30 17 75 43 100 58 44 27 44 28 20 37
-14 5 -115 39 -225 76 -110 37 -209 71 -220 76 -11 5 -54 20 -95 34 -41 13
-160 54 -265 91 -104 36 -221 77 -260 89 -38 13 -124 42 -190 65 -258 91 -405
142 -535 186 -74 26 -198 69 -275 95 -77 27 -207 72 -290 100 -82 28 -199 69
-260 90 -60 21 -249 86 -420 145 -170 59 -406 140 -524 181 -118 41 -215 73
-217 71 -2 -1 36 -23 84 -49 48 -25 165 -89 261 -143 96 -53 202 -111 235
-130 34 -18 144 -79 246 -135 102 -57 203 -113 225 -125 22 -12 65 -35 95 -52
233 -129 456 -252 510 -282 315 -173 389 -216 383 -222 -21 -20 -292 -118
-433 -156 -80 -21 -83 -22 -220 -48 -180 -33 -213 -36 -435 -40 -233 -4 -413
14 -620 61 -5 1 -25 5 -42 8 -62 12 -269 78 -367 117 -360 145 -627 320 -891
584 -153 153 -163 164 -269 305 -307 407 -495 914 -531 1431 -5 74 -5 334 0
389 6 64 15 144 19 166 2 11 7 42 10 69 4 28 19 97 33 155 13 58 26 112 28
121 20 96 128 366 201 506 65 123 208 351 234 373 3 3 19 24 36 47 125 173
372 408 581 554 134 92 154 105 298 179 321 166 672 267 1030 297 154 12 446
6 555 -11 14 -3 43 -7 65 -10 532 -70 1121 -362 1500 -743 128 -127 231 -265
404 -533 40 -61 134 -255 179 -370 90 -225 141 -423 176 -680 31 -223 22 -557
-20 -815 -30 -180 -129 -491 -198 -622 l-14 -28 -10 25 c-6 14 -26 63 -45 110
-19 47 -114 281 -212 520 -97 239 -179 437 -181 439 -4 4 -39 7 -174 16 -58 3
-132 8 -165 10 -108 8 -336 22 -470 30 -49 3 -119 7 -155 10 -36 3 -102 7
-147 10 l-83 6 9 -23 c5 -13 71 -149 146 -303 76 -154 177 -361 225 -460 48
-99 142 -292 209 -428 114 -235 131 -275 114 -264 -5 3 -26 8 -48 11 -22 3
-62 10 -90 16 -27 5 -68 12 -90 15 -33 5 -212 34 -305 50 -35 6 -328 55 -365
61 -16 3 -66 11 -110 19 -44 8 -96 17 -115 20 -19 3 -46 8 -60 10 -14 2 -54 9
-90 14 -36 6 -75 13 -86 15 -12 2 -39 7 -60 10 -22 4 -46 8 -54 11 -8 2 -37 7
-64 10 -27 3 -59 8 -70 10 -12 3 -34 7 -51 10 -92 16 -163 27 -190 31 -16 3
-52 9 -80 14 -27 5 -66 12 -85 15 -19 3 -60 10 -90 15 -30 5 -73 12 -95 16
-22 3 -60 10 -85 14 -54 10 -65 5 -18 -8 18 -6 85 -29 148 -52 63 -23 189 -68
280 -100 147 -52 311 -110 565 -200 44 -15 143 -51 220 -78 217 -78 389 -139
1260 -448 446 -158 914 -324 1040 -369 127 -45 231 -81 233 -80 1 1 -82 210
-186 463 -104 254 -185 465 -181 469 15 16 131 257 173 360 83 204 148 426
176 603 7 41 14 82 15 90 5 31 15 117 21 180 7 81 7 399 0 460 -3 25 -8 68
-11 95 -39 331 -137 659 -288 961 -79 158 -91 179 -204 350 -488 737 -1322
1232 -2208 1310 -72 6 -352 13 -358 8z"/>
<path d="M3249 6536 c-2 -2 -35 -7 -74 -11 -38 -4 -104 -12 -145 -20 -75 -12
-75 -12 -25 -15 114 -4 302 -19 325 -25 8 -2 33 -7 55 -10 22 -4 45 -8 50 -9
6 -2 28 -6 50 -10 151 -29 394 -118 553 -202 408 -217 698 -521 912 -959 91
-185 155 -392 194 -629 26 -154 26 -509 0 -603 -7 -26 -1 -29 66 -37 25 -3 79
-10 120 -16 41 -6 99 -15 127 -19 29 -4 55 -10 57 -12 4 -4 235 -563 275 -665
71 -181 116 -283 121 -277 17 20 96 294 115 398 34 186 49 355 48 550 0 128
-10 304 -18 328 -2 6 -7 30 -9 52 -4 37 -41 220 -51 255 -119 421 -306 775
-574 1090 -265 311 -735 601 -1206 743 -80 25 -267 66 -347 77 -40 6 -89 13
-108 16 -40 6 -506 15 -511 10z"/>
<path d="M957 4573 c-27 -155 -37 -213 -41 -243 -27 -185 -26 -521 3 -715 60
-402 185 -736 396 -1060 356 -546 892 -937 1508 -1100 106 -28 281 -63 347
-69 363 -37 603 -21 925 60 86 22 285 83 322 100 17 8 36 14 42 14 6 0 11 3
11 8 0 6 -35 26 -305 171 -117 62 -577 311 -650 351 -27 15 -99 53 -159 85
l-108 57 -142 3 c-202 5 -313 19 -495 66 -515 134 -980 463 -1275 905 -94 140
-246 453 -246 506 0 8 -4 18 -9 23 -8 9 -54 182 -66 250 -2 17 -7 41 -10 55
-3 14 -7 41 -9 60 -3 19 -8 61 -11 92 -4 32 -8 134 -9 228 -2 164 -8 212 -19
153z"/>
</g>
</svg>
