<svg xmlns="http://www.w3.org/2000/svg" xml:space="preserve" x="0" y="0" style="enable-background:new 0 0 100 100" version="1.1" viewBox="0 0 100 100">
  <path d="m56.7 70.8 30.8 10.5-27.9 16L48 89.5l19.7-11.1z" fill="#ff1e56" />
  <path d="m61.5 64.9 27.7 10.8-11.1-30.2-13.8-1.4 9.6 21.8z" fill="#ffac41" />
  <path d="M50 1.2c11.4 0 22.2 5 29.7 12.5s12.5 18.2 12.5 29.7c0 7.9-2.1 14.6-5.7 21.1l5.4 13.2-54.4-19.3 33.9 5.7L61.1 43l17.1 1.1 6.4 15.7c2.5-5 3.6-10.4 3.6-16.4 0-10.4-4.3-20-11.1-27.2C70 9.4 60.4 5.2 50 5.2c-10.7 0-20.4 4.3-27.2 11.1-7.1 7.1-11.4 16.7-11.4 27.1 0 10.7 4.3 20.4 11.4 27.5C29.6 77.7 39.3 82 50 82c5.7 0 11.1-1.4 16.1-3.6L36.4 62l54.7 18.9-31.8 17.9-13.9-10 6.8-3.2h-2.1c-11.8 0-22.2-4.6-30-12.1C12.6 66 8 55.3 8 43.5 7.8 32 12.5 21.2 20 13.7 27.8 6.2 38.2 1.2 50 1.2zm12.5 72.6 9.6 5-21.7 10.3 9.3 6.8L85 81.6l-22.5-7.8zm2.9-8.3 22.2 7.9-10.8-27.2-11.4-.7 10.7 21.8-10.7-1.8z" />
  <path d="M46.4 68.1h-1.8c-8.2 0-16.1-3.6-21.8-9.3-5.4-5.4-8.9-13.2-8.9-21.8v-3.2c-.7 2.9-1.1 5.7-1.1 8.6 0 10.4 4.3 19.7 11.1 26.4 6.4 6.4 15.7 10.7 26.1 10.7 4.6 0 10.1-.5 14-1.9l-17.6-9.5z" fill="#ffac41" />
  <path d="M46.4 69.1h-1.8c-8.2 0-16.1-3.6-21.8-9.3-5.4-5.4-8.9-13.2-8.9-21.8v-3.2c-.7 2.9-1.1 5.7-1.1 8.6 0 10.4 4.3 19.7 11.1 26.4 6.4 6.4 15.7 10.7 26.1 10.7 4.6 0 8.9-1.1 12.9-2.5l-16.5-8.9z" fill="#323232" />
  <path d="M48 6.6c-2.1 0-4.3.4-6.4.7h1.1c8.6 0 16.4 3.2 22.2 8.9 5.4 5.7 8.9 13.2 8.9 21.8 0 1.4 0 3.2-.4 4.6l5.4.8 5.6 13.7c1.4-3.9.5-9.1.5-13.8 0-10-4.3-19.3-10.7-26.1C67.3 10.9 58 6.6 48 6.6z" fill="#ff1e56" />
  <path d="M50 6.6c-2.1 0-4.3.4-6.4.7h1.1c8.6 0 16.4 3.2 22.2 8.9 5.4 5.7 8.9 13.2 8.9 21.8 0 1.4 0 3.2-.4 4.6h3.9l5.4 13.6c1.4-3.9 2.1-8.2 2.1-12.9 0-10-4.3-19.3-10.7-26.1C69.3 10.9 60 6.6 50 6.6z" fill="#323232" />
</svg>
